<?xml version="1.0" encoding="UTF-8"?>
<svg id="Layer_1" data-name="Layer 1" xmlns="http://www.w3.org/2000/svg" viewBox="0 0 1084.21 134.8">
  <defs>
    <style>
      .cls-1 {
        fill: #e12a25;
      }

      .cls-2 {
        fill: #181818;
      }
    </style>
  </defs>
  <g>
    <path class="cls-1" d="M144.66,2.14l-19.97,85.57L103.75,2.14h-28.52l-20.95,85.57L34.15,2.14H0l35.76,130.31h34.32l19.48-80.1,19.33,80.1h34.32L178.97,2.14h-34.31Z"/>
    <path class="cls-1" d="M280.44,2.14l-24.97,73.46L230.51,2.14h-42.7v130.31h30.77V46.88l29.16,85.57h15.63l28.99-85.57v85.57h30.93V2.14h-42.85Z"/>
    <path class="cls-2" d="M394.16,50.4c-14.18-2.73-22.23-4.89-22.23-11.92,0-5.66,4.66-9.38,14.33-9.38,12.73,0,27.23,5.28,37.38,14.85l14.65-24.81C425.41,6.64,407.04.19,388.68.19c-31.09,0-49.46,17.58-49.46,41.42,0,31.64,26.9,37.31,47.69,41.02,13.36,2.54,21.74,4.5,21.74,12.11,0,6.26-5.79,10.75-17.56,10.75-16.42,0-31.89-8.2-41.07-18.17l-14.34,25.79c11.44,12.5,30.77,21.69,54.77,21.69,31.9,0,50.58-17.58,50.58-44.16,0-30.08-26.42-36.14-46.87-40.24Z"/>
    <path class="cls-2" d="M672.82,132.45h-36.4l-20.78-43.37h-18.54v43.37h-31.24V53.65h35.42l7.56,13.65h25.42l9.07-16.37h-28.94l-3.69-6.65,3.69-6.66h28.85l-8.98-16.21h-25.42l-7.55,13.64h-35.43V2.14h67.49c25.14,0,38.82,18.37,38.82,43.77,0,20.31-9.01,34.38-23.99,40.25l24.64,46.29Z"/>
    <path class="cls-2" d="M768.18,2.14l-29.32,90.85-29.64-90.85h-35.12l45.91,130.31h37.54L803.46,2.14h-35.28Z"/>
    <path class="cls-2" d="M811.66,2.14v130.31h31.25V2.14h-31.25Z"/>
    <path class="cls-2" d="M922.16,103.93c-19.33,0-32.38-14.85-32.38-36.53s13.05-36.53,32.38-36.53c14.02,0,23.53,8.2,28.36,19.53l26.73-16.02c-7.88-17.98-25.93-34.38-55.09-34.38-35.76,0-64.43,25.19-64.43,67.4s28.67,67.4,64.43,67.4c29,0,47.21-16.8,55.09-33.8l-27.06-15.83c-4.5,10.94-14.17,18.76-28.03,18.76Z"/>
    <path class="cls-2" d="M1084.21,31.84V2.14h-94.08v130.31h94.08v-29.7h-62.83v-22.07h60.9v-28.53h-60.9v-20.31h62.83Z"/>
  </g>
  <polygon class="cls-2" points="548.79 2.14 548.79 35.1 485.97 35.1 485.97 53.86 546.86 53.86 546.86 80.68 485.97 80.68 485.97 102.75 548.79 102.75 548.79 132.45 454.72 132.45 454.72 2.14 548.79 2.14"/>
</svg>